<?xml version="1.0" encoding="utf-8" standalone="no"?>
<!DOCTYPE svg PUBLIC "-//W3C//DTD SVG 1.1//EN"
  "http://www.w3.org/Graphics/SVG/1.1/DTD/svg11.dtd">
<!-- Created with matplotlib (https://matplotlib.org/) -->
<svg height="321.628438pt" version="1.1" viewBox="0 0 393.58875 321.628438" width="393.58875pt" xmlns="http://www.w3.org/2000/svg" xmlns:xlink="http://www.w3.org/1999/xlink">
 <defs>
  <style type="text/css">
*{stroke-linecap:butt;stroke-linejoin:round;}
  </style>
 </defs>
 <g id="figure_1">
  <g id="patch_1">
   <path d="M 0 321.628438 
L 393.58875 321.628438 
L 393.58875 0 
L 0 0 
z
" style="fill:#ffffff;"/>
  </g>
  <g id="axes_1">
   <g id="patch_2">
    <path d="M 79.22875 252.86 
L 386.38875 252.86 
L 386.38875 7.2 
L 79.22875 7.2 
z
" style="fill:#ffffff;"/>
   </g>
   <g id="matplotlib.axis_1">
    <g id="xtick_1">
     <g id="line2d_1">
      <defs>
       <path d="M 0 0 
L 0 12 
" id="m5eebb9ace2" style="stroke:#262626;stroke-width:2.5;"/>
      </defs>
      <g>
       <use style="fill:#262626;stroke:#262626;stroke-width:2.5;" x="93.190568" xlink:href="#m5eebb9ace2" y="252.86"/>
      </g>
     </g>
     <g id="text_1">
      <!-- 0 -->
      <defs>
       <path d="M 4.15625 35.296875 
Q 4.15625 48 6.765625 55.734375 
Q 9.375 63.484375 14.515625 67.671875 
Q 19.671875 71.875 27.484375 71.875 
Q 33.25 71.875 37.59375 69.546875 
Q 41.9375 67.234375 44.765625 62.859375 
Q 47.609375 58.5 49.21875 52.21875 
Q 50.828125 45.953125 50.828125 35.296875 
Q 50.828125 22.703125 48.234375 14.96875 
Q 45.65625 7.234375 40.5 3 
Q 35.359375 -1.21875 27.484375 -1.21875 
Q 17.140625 -1.21875 11.234375 6.203125 
Q 4.15625 15.140625 4.15625 35.296875 
z
M 13.1875 35.296875 
Q 13.1875 17.671875 17.3125 11.828125 
Q 21.4375 6 27.484375 6 
Q 33.546875 6 37.671875 11.859375 
Q 41.796875 17.71875 41.796875 35.296875 
Q 41.796875 52.984375 37.671875 58.78125 
Q 33.546875 64.59375 27.390625 64.59375 
Q 21.34375 64.59375 17.71875 59.46875 
Q 13.1875 52.9375 13.1875 35.296875 
z
" id="ArialMT-48"/>
      </defs>
      <g style="fill:#262626;" transform="translate(87.073537 284.107188)scale(0.22 -0.22)">
       <use xlink:href="#ArialMT-48"/>
      </g>
     </g>
    </g>
    <g id="xtick_2">
     <g id="line2d_2">
      <g>
       <use style="fill:#262626;stroke:#262626;stroke-width:2.5;" x="232.948508" xlink:href="#m5eebb9ace2" y="252.86"/>
      </g>
     </g>
     <g id="text_2">
      <!-- 5 -->
      <defs>
       <path d="M 4.15625 18.75 
L 13.375 19.53125 
Q 14.40625 12.796875 18.140625 9.390625 
Q 21.875 6 27.15625 6 
Q 33.5 6 37.890625 10.78125 
Q 42.28125 15.578125 42.28125 23.484375 
Q 42.28125 31 38.0625 35.34375 
Q 33.84375 39.703125 27 39.703125 
Q 22.75 39.703125 19.328125 37.765625 
Q 15.921875 35.84375 13.96875 32.765625 
L 5.71875 33.84375 
L 12.640625 70.609375 
L 48.25 70.609375 
L 48.25 62.203125 
L 19.671875 62.203125 
L 15.828125 42.96875 
Q 22.265625 47.46875 29.34375 47.46875 
Q 38.71875 47.46875 45.15625 40.96875 
Q 51.609375 34.46875 51.609375 24.265625 
Q 51.609375 14.546875 45.953125 7.46875 
Q 39.0625 -1.21875 27.15625 -1.21875 
Q 17.390625 -1.21875 11.203125 4.25 
Q 5.03125 9.71875 4.15625 18.75 
z
" id="ArialMT-53"/>
      </defs>
      <g style="fill:#262626;" transform="translate(226.831477 284.107188)scale(0.22 -0.22)">
       <use xlink:href="#ArialMT-53"/>
      </g>
     </g>
    </g>
    <g id="xtick_3">
     <g id="line2d_3">
      <g>
       <use style="fill:#262626;stroke:#262626;stroke-width:2.5;" x="372.706448" xlink:href="#m5eebb9ace2" y="252.86"/>
      </g>
     </g>
     <g id="text_3">
      <!-- 10 -->
      <defs>
       <path d="M 37.25 0 
L 28.46875 0 
L 28.46875 56 
Q 25.296875 52.984375 20.140625 49.953125 
Q 14.984375 46.921875 10.890625 45.40625 
L 10.890625 53.90625 
Q 18.265625 57.375 23.78125 62.296875 
Q 29.296875 67.234375 31.59375 71.875 
L 37.25 71.875 
z
" id="ArialMT-49"/>
      </defs>
      <g style="fill:#262626;" transform="translate(360.472385 284.107188)scale(0.22 -0.22)">
       <use xlink:href="#ArialMT-49"/>
       <use x="55.615234" xlink:href="#ArialMT-48"/>
      </g>
     </g>
    </g>
    <g id="text_4">
     <!-- time -->
     <defs>
      <path d="M 25.78125 7.859375 
L 27.046875 0.09375 
Q 23.34375 -0.6875 20.40625 -0.6875 
Q 15.625 -0.6875 12.984375 0.828125 
Q 10.359375 2.34375 9.28125 4.8125 
Q 8.203125 7.28125 8.203125 15.1875 
L 8.203125 45.015625 
L 1.765625 45.015625 
L 1.765625 51.859375 
L 8.203125 51.859375 
L 8.203125 64.703125 
L 16.9375 69.96875 
L 16.9375 51.859375 
L 25.78125 51.859375 
L 25.78125 45.015625 
L 16.9375 45.015625 
L 16.9375 14.703125 
Q 16.9375 10.9375 17.40625 9.859375 
Q 17.875 8.796875 18.921875 8.15625 
Q 19.96875 7.515625 21.921875 7.515625 
Q 23.390625 7.515625 25.78125 7.859375 
z
" id="ArialMT-116"/>
      <path d="M 6.640625 61.46875 
L 6.640625 71.578125 
L 15.4375 71.578125 
L 15.4375 61.46875 
z
M 6.640625 0 
L 6.640625 51.859375 
L 15.4375 51.859375 
L 15.4375 0 
z
" id="ArialMT-105"/>
      <path d="M 6.59375 0 
L 6.59375 51.859375 
L 14.453125 51.859375 
L 14.453125 44.578125 
Q 16.890625 48.390625 20.9375 50.703125 
Q 25 53.03125 30.171875 53.03125 
Q 35.9375 53.03125 39.625 50.640625 
Q 43.3125 48.25 44.828125 43.953125 
Q 50.984375 53.03125 60.84375 53.03125 
Q 68.5625 53.03125 72.703125 48.75 
Q 76.859375 44.484375 76.859375 35.59375 
L 76.859375 0 
L 68.109375 0 
L 68.109375 32.671875 
Q 68.109375 37.9375 67.25 40.25 
Q 66.40625 42.578125 64.15625 43.984375 
Q 61.921875 45.40625 58.890625 45.40625 
Q 53.421875 45.40625 49.796875 41.765625 
Q 46.1875 38.140625 46.1875 30.125 
L 46.1875 0 
L 37.40625 0 
L 37.40625 33.6875 
Q 37.40625 39.546875 35.25 42.46875 
Q 33.109375 45.40625 28.21875 45.40625 
Q 24.515625 45.40625 21.359375 43.453125 
Q 18.21875 41.5 16.796875 37.734375 
Q 15.375 33.984375 15.375 26.90625 
L 15.375 0 
z
" id="ArialMT-109"/>
      <path d="M 42.09375 16.703125 
L 51.171875 15.578125 
Q 49.03125 7.625 43.21875 3.21875 
Q 37.40625 -1.171875 28.375 -1.171875 
Q 17 -1.171875 10.328125 5.828125 
Q 3.65625 12.84375 3.65625 25.484375 
Q 3.65625 38.578125 10.390625 45.796875 
Q 17.140625 53.03125 27.875 53.03125 
Q 38.28125 53.03125 44.875 45.953125 
Q 51.46875 38.875 51.46875 26.03125 
Q 51.46875 25.25 51.421875 23.6875 
L 12.75 23.6875 
Q 13.234375 15.140625 17.578125 10.59375 
Q 21.921875 6.0625 28.421875 6.0625 
Q 33.25 6.0625 36.671875 8.59375 
Q 40.09375 11.140625 42.09375 16.703125 
z
M 13.234375 30.90625 
L 42.1875 30.90625 
Q 41.609375 37.453125 38.875 40.71875 
Q 34.671875 45.796875 27.984375 45.796875 
Q 21.921875 45.796875 17.796875 41.75 
Q 13.671875 37.703125 13.234375 30.90625 
z
" id="ArialMT-101"/>
     </defs>
     <g style="fill:#262626;" transform="translate(210.14 309.658437)scale(0.24 -0.24)">
      <use xlink:href="#ArialMT-116"/>
      <use x="27.783203" xlink:href="#ArialMT-105"/>
      <use x="50" xlink:href="#ArialMT-109"/>
      <use x="133.300781" xlink:href="#ArialMT-101"/>
     </g>
    </g>
   </g>
   <g id="matplotlib.axis_2">
    <g id="ytick_1">
     <g id="line2d_4">
      <defs>
       <path d="M 0 0 
L -12 0 
" id="mf560d8915a" style="stroke:#262626;stroke-width:2.5;"/>
      </defs>
      <g>
       <use style="fill:#262626;stroke:#262626;stroke-width:2.5;" x="79.22875" xlink:href="#mf560d8915a" y="241.693636"/>
      </g>
     </g>
     <g id="text_5">
      <!-- 0.0 -->
      <defs>
       <path d="M 9.078125 0 
L 9.078125 10.015625 
L 19.09375 10.015625 
L 19.09375 0 
z
" id="ArialMT-46"/>
      </defs>
      <g style="fill:#262626;" transform="translate(33.14875 249.56723)scale(0.22 -0.22)">
       <use xlink:href="#ArialMT-48"/>
       <use x="55.615234" xlink:href="#ArialMT-46"/>
       <use x="83.398438" xlink:href="#ArialMT-48"/>
      </g>
     </g>
    </g>
    <g id="ytick_2">
     <g id="line2d_5">
      <g>
       <use style="fill:#262626;stroke:#262626;stroke-width:2.5;" x="79.22875" xlink:href="#mf560d8915a" y="168.584312"/>
      </g>
     </g>
     <g id="text_6">
      <!-- 0.1 -->
      <g style="fill:#262626;" transform="translate(33.14875 176.457905)scale(0.22 -0.22)">
       <use xlink:href="#ArialMT-48"/>
       <use x="55.615234" xlink:href="#ArialMT-46"/>
       <use x="83.398438" xlink:href="#ArialMT-49"/>
      </g>
     </g>
    </g>
    <g id="ytick_3">
     <g id="line2d_6">
      <g>
       <use style="fill:#262626;stroke:#262626;stroke-width:2.5;" x="79.22875" xlink:href="#mf560d8915a" y="95.474987"/>
      </g>
     </g>
     <g id="text_7">
      <!-- 0.2 -->
      <defs>
       <path d="M 50.34375 8.453125 
L 50.34375 0 
L 3.03125 0 
Q 2.9375 3.171875 4.046875 6.109375 
Q 5.859375 10.9375 9.828125 15.625 
Q 13.8125 20.3125 21.34375 26.46875 
Q 33.015625 36.03125 37.109375 41.625 
Q 41.21875 47.21875 41.21875 52.203125 
Q 41.21875 57.421875 37.46875 61 
Q 33.734375 64.59375 27.734375 64.59375 
Q 21.390625 64.59375 17.578125 60.78125 
Q 13.765625 56.984375 13.71875 50.25 
L 4.6875 51.171875 
Q 5.609375 61.28125 11.65625 66.578125 
Q 17.71875 71.875 27.9375 71.875 
Q 38.234375 71.875 44.234375 66.15625 
Q 50.25 60.453125 50.25 52 
Q 50.25 47.703125 48.484375 43.546875 
Q 46.734375 39.40625 42.65625 34.8125 
Q 38.578125 30.21875 29.109375 22.21875 
Q 21.1875 15.578125 18.9375 13.203125 
Q 16.703125 10.84375 15.234375 8.453125 
z
" id="ArialMT-50"/>
      </defs>
      <g style="fill:#262626;" transform="translate(33.14875 103.34858)scale(0.22 -0.22)">
       <use xlink:href="#ArialMT-48"/>
       <use x="55.615234" xlink:href="#ArialMT-46"/>
       <use x="83.398438" xlink:href="#ArialMT-50"/>
      </g>
     </g>
    </g>
    <g id="ytick_4">
     <g id="line2d_7">
      <g>
       <use style="fill:#262626;stroke:#262626;stroke-width:2.5;" x="79.22875" xlink:href="#mf560d8915a" y="22.365662"/>
      </g>
     </g>
     <g id="text_8">
      <!-- 0.3 -->
      <defs>
       <path d="M 4.203125 18.890625 
L 12.984375 20.0625 
Q 14.5 12.59375 18.140625 9.296875 
Q 21.78125 6 27 6 
Q 33.203125 6 37.46875 10.296875 
Q 41.75 14.59375 41.75 20.953125 
Q 41.75 27 37.796875 30.921875 
Q 33.84375 34.859375 27.734375 34.859375 
Q 25.25 34.859375 21.53125 33.890625 
L 22.515625 41.609375 
Q 23.390625 41.5 23.921875 41.5 
Q 29.546875 41.5 34.03125 44.421875 
Q 38.53125 47.359375 38.53125 53.46875 
Q 38.53125 58.296875 35.25 61.46875 
Q 31.984375 64.65625 26.8125 64.65625 
Q 21.6875 64.65625 18.265625 61.421875 
Q 14.84375 58.203125 13.875 51.765625 
L 5.078125 53.328125 
Q 6.6875 62.15625 12.390625 67.015625 
Q 18.109375 71.875 26.609375 71.875 
Q 32.46875 71.875 37.390625 69.359375 
Q 42.328125 66.84375 44.9375 62.5 
Q 47.5625 58.15625 47.5625 53.265625 
Q 47.5625 48.640625 45.0625 44.828125 
Q 42.578125 41.015625 37.703125 38.765625 
Q 44.046875 37.3125 47.5625 32.6875 
Q 51.078125 28.078125 51.078125 21.140625 
Q 51.078125 11.765625 44.234375 5.25 
Q 37.40625 -1.265625 26.953125 -1.265625 
Q 17.53125 -1.265625 11.296875 4.34375 
Q 5.078125 9.96875 4.203125 18.890625 
z
" id="ArialMT-51"/>
      </defs>
      <g style="fill:#262626;" transform="translate(33.14875 30.239256)scale(0.22 -0.22)">
       <use xlink:href="#ArialMT-48"/>
       <use x="55.615234" xlink:href="#ArialMT-46"/>
       <use x="83.398438" xlink:href="#ArialMT-51"/>
      </g>
     </g>
    </g>
    <g id="text_9">
     <!-- cells -->
     <defs>
      <path d="M 40.4375 19 
L 49.078125 17.875 
Q 47.65625 8.9375 41.8125 3.875 
Q 35.984375 -1.171875 27.484375 -1.171875 
Q 16.84375 -1.171875 10.375 5.78125 
Q 3.90625 12.75 3.90625 25.734375 
Q 3.90625 34.125 6.6875 40.421875 
Q 9.46875 46.734375 15.15625 49.875 
Q 20.84375 53.03125 27.546875 53.03125 
Q 35.984375 53.03125 41.359375 48.75 
Q 46.734375 44.484375 48.25 36.625 
L 39.703125 35.296875 
Q 38.484375 40.53125 35.375 43.15625 
Q 32.28125 45.796875 27.875 45.796875 
Q 21.234375 45.796875 17.078125 41.03125 
Q 12.9375 36.28125 12.9375 25.984375 
Q 12.9375 15.53125 16.9375 10.796875 
Q 20.953125 6.0625 27.390625 6.0625 
Q 32.5625 6.0625 36.03125 9.234375 
Q 39.5 12.40625 40.4375 19 
z
" id="ArialMT-99"/>
      <path d="M 6.390625 0 
L 6.390625 71.578125 
L 15.1875 71.578125 
L 15.1875 0 
z
" id="ArialMT-108"/>
      <path d="M 3.078125 15.484375 
L 11.765625 16.84375 
Q 12.5 11.625 15.84375 8.84375 
Q 19.1875 6.0625 25.203125 6.0625 
Q 31.25 6.0625 34.171875 8.515625 
Q 37.109375 10.984375 37.109375 14.3125 
Q 37.109375 17.28125 34.515625 19 
Q 32.71875 20.171875 25.53125 21.96875 
Q 15.875 24.421875 12.140625 26.203125 
Q 8.40625 27.984375 6.46875 31.125 
Q 4.546875 34.28125 4.546875 38.09375 
Q 4.546875 41.546875 6.125 44.5 
Q 7.71875 47.46875 10.453125 49.421875 
Q 12.5 50.921875 16.03125 51.96875 
Q 19.578125 53.03125 23.640625 53.03125 
Q 29.734375 53.03125 34.34375 51.265625 
Q 38.96875 49.515625 41.15625 46.5 
Q 43.359375 43.5 44.1875 38.484375 
L 35.59375 37.3125 
Q 35.015625 41.3125 32.203125 43.546875 
Q 29.390625 45.796875 24.265625 45.796875 
Q 18.21875 45.796875 15.625 43.796875 
Q 13.03125 41.796875 13.03125 39.109375 
Q 13.03125 37.40625 14.109375 36.03125 
Q 15.1875 34.625 17.484375 33.6875 
Q 18.796875 33.203125 25.25 31.453125 
Q 34.578125 28.953125 38.25 27.359375 
Q 41.9375 25.78125 44.03125 22.75 
Q 46.140625 19.734375 46.140625 15.234375 
Q 46.140625 10.84375 43.578125 6.953125 
Q 41.015625 3.078125 36.171875 0.953125 
Q 31.34375 -1.171875 25.25 -1.171875 
Q 15.140625 -1.171875 9.84375 3.03125 
Q 4.546875 7.234375 3.078125 15.484375 
z
" id="ArialMT-115"/>
     </defs>
     <g style="fill:#262626;" transform="translate(24.37875 154.035625)rotate(-90)scale(0.24 -0.24)">
      <use xlink:href="#ArialMT-99"/>
      <use x="50" xlink:href="#ArialMT-101"/>
      <use x="105.615234" xlink:href="#ArialMT-108"/>
      <use x="127.832031" xlink:href="#ArialMT-108"/>
      <use x="150.048828" xlink:href="#ArialMT-115"/>
     </g>
    </g>
   </g>
   <g id="line2d_8">
    <path clip-path="url(#p8eccdcb629)" d="M 93.190568 241.693636 
L 116.11087 241.593006 
L 118.626513 241.34928 
L 120.303608 240.993407 
L 121.701188 240.500189 
L 123.098767 239.75381 
L 124.216831 238.920329 
L 125.334894 237.828608 
L 126.452958 236.433362 
L 127.571021 234.690841 
L 128.689085 232.561285 
L 129.807148 230.011409 
L 131.204728 226.196691 
L 132.602307 221.664068 
L 133.999887 216.420387 
L 135.676982 209.246946 
L 137.633593 199.830796 
L 140.149236 186.538664 
L 146.857617 150.368467 
L 149.093744 139.80443 
L 151.050355 131.597476 
L 153.006966 124.417753 
L 154.684062 119.058923 
L 156.361157 114.37318 
L 158.038252 110.277936 
L 159.994863 106.120718 
L 161.951475 102.489416 
L 164.187602 98.813914 
L 166.703244 95.105473 
L 169.498403 91.364506 
L 172.293562 87.960652 
L 175.088721 84.90652 
L 177.604364 82.492067 
L 179.840491 80.632904 
L 182.076618 79.047569 
L 184.312745 77.72345 
L 186.828388 76.513106 
L 189.344031 75.550139 
L 192.418705 74.631342 
L 196.052412 73.803568 
L 200.24515 73.082824 
L 204.99692 72.498698 
L 209.74869 72.147477 
L 214.50046 72.01849 
L 220.090777 72.097845 
L 227.35819 72.438128 
L 237.420762 73.143672 
L 249.719461 74.237991 
L 309.815375 79.892907 
L 327.424875 81.200249 
L 344.75486 82.264059 
L 362.36436 83.11958 
L 372.426932 83.512423 
L 372.426932 83.512423 
" style="fill:none;stroke:#4c72b0;stroke-linecap:round;stroke-width:3;"/>
   </g>
   <g id="line2d_9">
    <path clip-path="url(#p8eccdcb629)" d="M 93.190568 241.693636 
L 116.11087 241.593006 
L 118.626513 241.34928 
L 120.303608 240.993407 
L 121.701188 240.500189 
L 123.098767 239.75381 
L 124.216831 238.920329 
L 125.334894 237.828608 
L 126.452958 236.433362 
L 127.571021 234.69084 
L 128.689085 232.561284 
L 129.807148 230.011404 
L 131.204728 226.196672 
L 132.602307 221.664001 
L 133.999887 216.420176 
L 135.676982 209.246208 
L 137.633593 199.828066 
L 140.149236 186.526778 
L 147.416649 147.33763 
L 149.652776 136.783284 
L 151.888903 127.335191 
L 153.845514 119.957841 
L 156.081641 112.416683 
L 158.597284 104.815613 
L 161.671959 96.340021 
L 166.703244 83.272055 
L 173.13211 67.101335 
L 176.4863 59.212925 
L 179.281459 53.177753 
L 181.797102 48.26004 
L 184.312745 43.861756 
L 186.548872 40.380764 
L 188.784999 37.27583 
L 191.300642 34.18658 
L 193.816285 31.472173 
L 196.331928 29.084591 
L 198.847571 26.987562 
L 201.363214 25.156869 
L 203.878856 23.577356 
L 206.394499 22.238461 
L 208.910142 21.129974 
L 211.705301 20.152837 
L 214.50046 19.421155 
L 217.575135 18.86619 
L 220.649809 18.533536 
L 224.283516 18.373287 
L 228.196738 18.422318 
L 232.948508 18.716293 
L 238.25931 19.271305 
L 244.967691 20.208692 
L 255.030262 21.874574 
L 281.863787 26.395479 
L 296.119097 28.534252 
L 310.374407 30.449713 
L 324.629716 32.141254 
L 338.60551 33.578897 
L 352.581304 34.796795 
L 366.836614 35.818206 
L 372.426932 36.160752 
L 372.426932 36.160752 
" style="fill:none;stroke:#4c72b0;stroke-dasharray:12,4.5;stroke-dashoffset:0;stroke-width:3;"/>
   </g>
   <g id="line2d_10">
    <path clip-path="url(#p8eccdcb629)" d="M 93.190568 241.693636 
L 116.669902 241.588793 
L 119.185545 241.351242 
L 121.142156 240.939199 
L 122.539736 240.444593 
L 123.937315 239.716139 
L 125.334894 238.687503 
L 126.452958 237.602312 
L 127.571021 236.247018 
L 128.689085 234.590697 
L 130.086664 232.058164 
L 131.484244 228.980239 
L 132.881823 225.343031 
L 134.558918 220.256442 
L 136.236014 214.446415 
L 138.472141 205.778891 
L 141.546815 192.8093 
L 146.019069 173.965185 
L 148.255196 165.419017 
L 150.211808 158.70187 
L 152.168419 152.774708 
L 153.845514 148.32622 
L 155.522609 144.427106 
L 157.199705 141.021081 
L 159.156316 137.57706 
L 161.112927 134.591099 
L 163.349054 131.598604 
L 165.864697 128.61021 
L 168.939372 125.331398 
L 172.014046 122.37651 
L 174.809205 119.97248 
L 177.604364 117.870193 
L 180.120007 116.258486 
L 182.63565 114.915264 
L 185.151293 113.823557 
L 187.946451 112.865758 
L 191.021126 112.057811 
L 194.654832 111.339404 
L 199.127087 110.68568 
L 204.437888 110.141602 
L 209.74869 109.824401 
L 215.339008 109.722374 
L 222.047389 109.841208 
L 231.550929 110.259147 
L 244.129143 111.044796 
L 265.092834 112.630124 
L 298.355224 115.098031 
L 319.318915 116.41895 
L 339.164542 117.444955 
L 359.01017 118.244676 
L 372.426932 118.663804 
L 372.426932 118.663804 
" style="fill:none;stroke:#dd8452;stroke-linecap:round;stroke-width:3;"/>
   </g>
   <g id="line2d_11">
    <path clip-path="url(#p8eccdcb629)" d="M 93.190568 241.693636 
L 116.669902 241.588793 
L 119.185545 241.351242 
L 121.142156 240.939199 
L 122.539736 240.444593 
L 123.937315 239.716139 
L 125.334894 238.687503 
L 126.452958 237.602312 
L 127.571021 236.247018 
L 128.689085 234.590698 
L 130.086664 232.058171 
L 131.484244 228.980264 
L 132.881823 225.343117 
L 134.558918 220.256767 
L 136.236014 214.447505 
L 138.472141 205.783462 
L 141.826331 191.632917 
L 145.739554 175.242058 
L 147.975681 166.778793 
L 149.932292 160.235747 
L 151.609387 155.37222 
L 153.286482 151.235167 
L 154.684062 148.342028 
L 156.081641 145.934249 
L 157.47922 143.981634 
L 158.8768 142.445557 
L 160.274379 141.282539 
L 161.671959 140.447514 
L 163.069538 139.896559 
L 164.467117 139.588913 
L 165.864697 139.488274 
L 167.541792 139.597112 
L 169.498403 139.98555 
L 171.455014 140.604008 
L 173.691141 141.539785 
L 176.206784 142.827739 
L 179.281459 144.659722 
L 183.474197 147.445521 
L 192.13919 153.276415 
L 195.772896 155.426638 
L 199.127087 157.169176 
L 202.481277 158.669696 
L 205.835468 159.94037 
L 209.469174 161.083556 
L 213.382396 162.077716 
L 217.575135 162.908089 
L 222.047389 163.565304 
L 227.078674 164.071342 
L 232.948508 164.423552 
L 240.495437 164.634602 
L 253.073651 164.727344 
L 281.025239 164.914646 
L 372.426932 166.015475 
L 372.426932 166.015475 
" style="fill:none;stroke:#dd8452;stroke-dasharray:12,4.5;stroke-dashoffset:0;stroke-width:3;"/>
   </g>
   <g id="patch_3">
    <path d="M 79.22875 252.86 
L 79.22875 7.2 
" style="fill:none;stroke:#262626;stroke-linecap:square;stroke-linejoin:miter;stroke-width:2.5;"/>
   </g>
   <g id="patch_4">
    <path d="M 79.22875 252.86 
L 386.38875 252.86 
" style="fill:none;stroke:#262626;stroke-linecap:square;stroke-linejoin:miter;stroke-width:2.5;"/>
   </g>
  </g>
 </g>
 <defs>
  <clipPath id="p8eccdcb629">
   <rect height="245.66" width="307.16" x="79.22875" y="7.2"/>
  </clipPath>
 </defs>
</svg>
