<?xml version="1.0" encoding="utf-8" standalone="no"?>
<!DOCTYPE svg PUBLIC "-//W3C//DTD SVG 1.1//EN"
  "http://www.w3.org/Graphics/SVG/1.1/DTD/svg11.dtd">
<!-- Created with matplotlib (https://matplotlib.org/) -->
<svg height="321.628438pt" version="1.1" viewBox="0 0 393.697812 321.628438" width="393.697812pt" xmlns="http://www.w3.org/2000/svg" xmlns:xlink="http://www.w3.org/1999/xlink">
 <defs>
  <style type="text/css">
*{stroke-linecap:butt;stroke-linejoin:round;}
  </style>
 </defs>
 <g id="figure_1">
  <g id="patch_1">
   <path d="M 0 321.628438 
L 393.697812 321.628438 
L 393.697812 0 
L 0 0 
z
" style="fill:#ffffff;"/>
  </g>
  <g id="axes_1">
   <g id="patch_2">
    <path d="M 91.462812 252.86 
L 386.497813 252.86 
L 386.497813 7.2 
L 91.462812 7.2 
z
" style="fill:#ffffff;"/>
   </g>
   <g id="matplotlib.axis_1">
    <g id="xtick_1">
     <g id="line2d_1">
      <defs>
       <path d="M 0 0 
L 0 12 
" id="mbce3d847d3" style="stroke:#262626;stroke-width:2.5;"/>
      </defs>
      <g>
       <use style="fill:#262626;stroke:#262626;stroke-width:2.5;" x="104.873494" xlink:href="#mbce3d847d3" y="252.86"/>
      </g>
     </g>
     <g id="text_1">
      <!-- 0 -->
      <defs>
       <path d="M 4.15625 35.296875 
Q 4.15625 48 6.765625 55.734375 
Q 9.375 63.484375 14.515625 67.671875 
Q 19.671875 71.875 27.484375 71.875 
Q 33.25 71.875 37.59375 69.546875 
Q 41.9375 67.234375 44.765625 62.859375 
Q 47.609375 58.5 49.21875 52.21875 
Q 50.828125 45.953125 50.828125 35.296875 
Q 50.828125 22.703125 48.234375 14.96875 
Q 45.65625 7.234375 40.5 3 
Q 35.359375 -1.21875 27.484375 -1.21875 
Q 17.140625 -1.21875 11.234375 6.203125 
Q 4.15625 15.140625 4.15625 35.296875 
z
M 13.1875 35.296875 
Q 13.1875 17.671875 17.3125 11.828125 
Q 21.4375 6 27.484375 6 
Q 33.546875 6 37.671875 11.859375 
Q 41.796875 17.71875 41.796875 35.296875 
Q 41.796875 52.984375 37.671875 58.78125 
Q 33.546875 64.59375 27.390625 64.59375 
Q 21.34375 64.59375 17.71875 59.46875 
Q 13.1875 52.9375 13.1875 35.296875 
z
" id="ArialMT-48"/>
      </defs>
      <g style="fill:#262626;" transform="translate(98.756463 284.107188)scale(0.22 -0.22)">
       <use xlink:href="#ArialMT-48"/>
      </g>
     </g>
    </g>
    <g id="xtick_2">
     <g id="line2d_2">
      <g>
       <use style="fill:#262626;stroke:#262626;stroke-width:2.5;" x="239.114554" xlink:href="#mbce3d847d3" y="252.86"/>
      </g>
     </g>
     <g id="text_2">
      <!-- 5 -->
      <defs>
       <path d="M 4.15625 18.75 
L 13.375 19.53125 
Q 14.40625 12.796875 18.140625 9.390625 
Q 21.875 6 27.15625 6 
Q 33.5 6 37.890625 10.78125 
Q 42.28125 15.578125 42.28125 23.484375 
Q 42.28125 31 38.0625 35.34375 
Q 33.84375 39.703125 27 39.703125 
Q 22.75 39.703125 19.328125 37.765625 
Q 15.921875 35.84375 13.96875 32.765625 
L 5.71875 33.84375 
L 12.640625 70.609375 
L 48.25 70.609375 
L 48.25 62.203125 
L 19.671875 62.203125 
L 15.828125 42.96875 
Q 22.265625 47.46875 29.34375 47.46875 
Q 38.71875 47.46875 45.15625 40.96875 
Q 51.609375 34.46875 51.609375 24.265625 
Q 51.609375 14.546875 45.953125 7.46875 
Q 39.0625 -1.21875 27.15625 -1.21875 
Q 17.390625 -1.21875 11.203125 4.25 
Q 5.03125 9.71875 4.15625 18.75 
z
" id="ArialMT-53"/>
      </defs>
      <g style="fill:#262626;" transform="translate(232.997522 284.107188)scale(0.22 -0.22)">
       <use xlink:href="#ArialMT-53"/>
      </g>
     </g>
    </g>
    <g id="xtick_3">
     <g id="line2d_3">
      <g>
       <use style="fill:#262626;stroke:#262626;stroke-width:2.5;" x="373.355613" xlink:href="#mbce3d847d3" y="252.86"/>
      </g>
     </g>
     <g id="text_3">
      <!-- 10 -->
      <defs>
       <path d="M 37.25 0 
L 28.46875 0 
L 28.46875 56 
Q 25.296875 52.984375 20.140625 49.953125 
Q 14.984375 46.921875 10.890625 45.40625 
L 10.890625 53.90625 
Q 18.265625 57.375 23.78125 62.296875 
Q 29.296875 67.234375 31.59375 71.875 
L 37.25 71.875 
z
" id="ArialMT-49"/>
      </defs>
      <g style="fill:#262626;" transform="translate(361.12155 284.107188)scale(0.22 -0.22)">
       <use xlink:href="#ArialMT-49"/>
       <use x="55.615234" xlink:href="#ArialMT-48"/>
      </g>
     </g>
    </g>
    <g id="text_4">
     <!-- time -->
     <defs>
      <path d="M 25.78125 7.859375 
L 27.046875 0.09375 
Q 23.34375 -0.6875 20.40625 -0.6875 
Q 15.625 -0.6875 12.984375 0.828125 
Q 10.359375 2.34375 9.28125 4.8125 
Q 8.203125 7.28125 8.203125 15.1875 
L 8.203125 45.015625 
L 1.765625 45.015625 
L 1.765625 51.859375 
L 8.203125 51.859375 
L 8.203125 64.703125 
L 16.9375 69.96875 
L 16.9375 51.859375 
L 25.78125 51.859375 
L 25.78125 45.015625 
L 16.9375 45.015625 
L 16.9375 14.703125 
Q 16.9375 10.9375 17.40625 9.859375 
Q 17.875 8.796875 18.921875 8.15625 
Q 19.96875 7.515625 21.921875 7.515625 
Q 23.390625 7.515625 25.78125 7.859375 
z
" id="ArialMT-116"/>
      <path d="M 6.640625 61.46875 
L 6.640625 71.578125 
L 15.4375 71.578125 
L 15.4375 61.46875 
z
M 6.640625 0 
L 6.640625 51.859375 
L 15.4375 51.859375 
L 15.4375 0 
z
" id="ArialMT-105"/>
      <path d="M 6.59375 0 
L 6.59375 51.859375 
L 14.453125 51.859375 
L 14.453125 44.578125 
Q 16.890625 48.390625 20.9375 50.703125 
Q 25 53.03125 30.171875 53.03125 
Q 35.9375 53.03125 39.625 50.640625 
Q 43.3125 48.25 44.828125 43.953125 
Q 50.984375 53.03125 60.84375 53.03125 
Q 68.5625 53.03125 72.703125 48.75 
Q 76.859375 44.484375 76.859375 35.59375 
L 76.859375 0 
L 68.109375 0 
L 68.109375 32.671875 
Q 68.109375 37.9375 67.25 40.25 
Q 66.40625 42.578125 64.15625 43.984375 
Q 61.921875 45.40625 58.890625 45.40625 
Q 53.421875 45.40625 49.796875 41.765625 
Q 46.1875 38.140625 46.1875 30.125 
L 46.1875 0 
L 37.40625 0 
L 37.40625 33.6875 
Q 37.40625 39.546875 35.25 42.46875 
Q 33.109375 45.40625 28.21875 45.40625 
Q 24.515625 45.40625 21.359375 43.453125 
Q 18.21875 41.5 16.796875 37.734375 
Q 15.375 33.984375 15.375 26.90625 
L 15.375 0 
z
" id="ArialMT-109"/>
      <path d="M 42.09375 16.703125 
L 51.171875 15.578125 
Q 49.03125 7.625 43.21875 3.21875 
Q 37.40625 -1.171875 28.375 -1.171875 
Q 17 -1.171875 10.328125 5.828125 
Q 3.65625 12.84375 3.65625 25.484375 
Q 3.65625 38.578125 10.390625 45.796875 
Q 17.140625 53.03125 27.875 53.03125 
Q 38.28125 53.03125 44.875 45.953125 
Q 51.46875 38.875 51.46875 26.03125 
Q 51.46875 25.25 51.421875 23.6875 
L 12.75 23.6875 
Q 13.234375 15.140625 17.578125 10.59375 
Q 21.921875 6.0625 28.421875 6.0625 
Q 33.25 6.0625 36.671875 8.59375 
Q 40.09375 11.140625 42.09375 16.703125 
z
M 13.234375 30.90625 
L 42.1875 30.90625 
Q 41.609375 37.453125 38.875 40.71875 
Q 34.671875 45.796875 27.984375 45.796875 
Q 21.921875 45.796875 17.796875 41.75 
Q 13.671875 37.703125 13.234375 30.90625 
z
" id="ArialMT-101"/>
     </defs>
     <g style="fill:#262626;" transform="translate(216.311563 309.658437)scale(0.24 -0.24)">
      <use xlink:href="#ArialMT-116"/>
      <use x="27.783203" xlink:href="#ArialMT-105"/>
      <use x="50" xlink:href="#ArialMT-109"/>
      <use x="133.300781" xlink:href="#ArialMT-101"/>
     </g>
    </g>
   </g>
   <g id="matplotlib.axis_2">
    <g id="ytick_1">
     <g id="line2d_4">
      <defs>
       <path d="M 0 0 
L -12 0 
" id="m14fcea5be0" style="stroke:#262626;stroke-width:2.5;"/>
      </defs>
      <g>
       <use style="fill:#262626;stroke:#262626;stroke-width:2.5;" x="91.462812" xlink:href="#m14fcea5be0" y="241.693636"/>
      </g>
     </g>
     <g id="text_5">
      <!-- 0.00 -->
      <defs>
       <path d="M 9.078125 0 
L 9.078125 10.015625 
L 19.09375 10.015625 
L 19.09375 0 
z
" id="ArialMT-46"/>
      </defs>
      <g style="fill:#262626;" transform="translate(33.14875 249.56723)scale(0.22 -0.22)">
       <use xlink:href="#ArialMT-48"/>
       <use x="55.615234" xlink:href="#ArialMT-46"/>
       <use x="83.398438" xlink:href="#ArialMT-48"/>
       <use x="139.013672" xlink:href="#ArialMT-48"/>
      </g>
     </g>
    </g>
    <g id="ytick_2">
     <g id="line2d_5">
      <g>
       <use style="fill:#262626;stroke:#262626;stroke-width:2.5;" x="91.462812" xlink:href="#m14fcea5be0" y="179.953205"/>
      </g>
     </g>
     <g id="text_6">
      <!-- 0.05 -->
      <g style="fill:#262626;" transform="translate(33.14875 187.826799)scale(0.22 -0.22)">
       <use xlink:href="#ArialMT-48"/>
       <use x="55.615234" xlink:href="#ArialMT-46"/>
       <use x="83.398438" xlink:href="#ArialMT-48"/>
       <use x="139.013672" xlink:href="#ArialMT-53"/>
      </g>
     </g>
    </g>
    <g id="ytick_3">
     <g id="line2d_6">
      <g>
       <use style="fill:#262626;stroke:#262626;stroke-width:2.5;" x="91.462812" xlink:href="#m14fcea5be0" y="118.212774"/>
      </g>
     </g>
     <g id="text_7">
      <!-- 0.10 -->
      <g style="fill:#262626;" transform="translate(33.14875 126.086368)scale(0.22 -0.22)">
       <use xlink:href="#ArialMT-48"/>
       <use x="55.615234" xlink:href="#ArialMT-46"/>
       <use x="83.398438" xlink:href="#ArialMT-49"/>
       <use x="139.013672" xlink:href="#ArialMT-48"/>
      </g>
     </g>
    </g>
    <g id="ytick_4">
     <g id="line2d_7">
      <g>
       <use style="fill:#262626;stroke:#262626;stroke-width:2.5;" x="91.462812" xlink:href="#m14fcea5be0" y="56.472343"/>
      </g>
     </g>
     <g id="text_8">
      <!-- 0.15 -->
      <g style="fill:#262626;" transform="translate(33.14875 64.345936)scale(0.22 -0.22)">
       <use xlink:href="#ArialMT-48"/>
       <use x="55.615234" xlink:href="#ArialMT-46"/>
       <use x="83.398438" xlink:href="#ArialMT-49"/>
       <use x="139.013672" xlink:href="#ArialMT-53"/>
      </g>
     </g>
    </g>
    <g id="text_9">
     <!-- cells -->
     <defs>
      <path d="M 40.4375 19 
L 49.078125 17.875 
Q 47.65625 8.9375 41.8125 3.875 
Q 35.984375 -1.171875 27.484375 -1.171875 
Q 16.84375 -1.171875 10.375 5.78125 
Q 3.90625 12.75 3.90625 25.734375 
Q 3.90625 34.125 6.6875 40.421875 
Q 9.46875 46.734375 15.15625 49.875 
Q 20.84375 53.03125 27.546875 53.03125 
Q 35.984375 53.03125 41.359375 48.75 
Q 46.734375 44.484375 48.25 36.625 
L 39.703125 35.296875 
Q 38.484375 40.53125 35.375 43.15625 
Q 32.28125 45.796875 27.875 45.796875 
Q 21.234375 45.796875 17.078125 41.03125 
Q 12.9375 36.28125 12.9375 25.984375 
Q 12.9375 15.53125 16.9375 10.796875 
Q 20.953125 6.0625 27.390625 6.0625 
Q 32.5625 6.0625 36.03125 9.234375 
Q 39.5 12.40625 40.4375 19 
z
" id="ArialMT-99"/>
      <path d="M 6.390625 0 
L 6.390625 71.578125 
L 15.1875 71.578125 
L 15.1875 0 
z
" id="ArialMT-108"/>
      <path d="M 3.078125 15.484375 
L 11.765625 16.84375 
Q 12.5 11.625 15.84375 8.84375 
Q 19.1875 6.0625 25.203125 6.0625 
Q 31.25 6.0625 34.171875 8.515625 
Q 37.109375 10.984375 37.109375 14.3125 
Q 37.109375 17.28125 34.515625 19 
Q 32.71875 20.171875 25.53125 21.96875 
Q 15.875 24.421875 12.140625 26.203125 
Q 8.40625 27.984375 6.46875 31.125 
Q 4.546875 34.28125 4.546875 38.09375 
Q 4.546875 41.546875 6.125 44.5 
Q 7.71875 47.46875 10.453125 49.421875 
Q 12.5 50.921875 16.03125 51.96875 
Q 19.578125 53.03125 23.640625 53.03125 
Q 29.734375 53.03125 34.34375 51.265625 
Q 38.96875 49.515625 41.15625 46.5 
Q 43.359375 43.5 44.1875 38.484375 
L 35.59375 37.3125 
Q 35.015625 41.3125 32.203125 43.546875 
Q 29.390625 45.796875 24.265625 45.796875 
Q 18.21875 45.796875 15.625 43.796875 
Q 13.03125 41.796875 13.03125 39.109375 
Q 13.03125 37.40625 14.109375 36.03125 
Q 15.1875 34.625 17.484375 33.6875 
Q 18.796875 33.203125 25.25 31.453125 
Q 34.578125 28.953125 38.25 27.359375 
Q 41.9375 25.78125 44.03125 22.75 
Q 46.140625 19.734375 46.140625 15.234375 
Q 46.140625 10.84375 43.578125 6.953125 
Q 41.015625 3.078125 36.171875 0.953125 
Q 31.34375 -1.171875 25.25 -1.171875 
Q 15.140625 -1.171875 9.84375 3.03125 
Q 4.546875 7.234375 3.078125 15.484375 
z
" id="ArialMT-115"/>
     </defs>
     <g style="fill:#262626;" transform="translate(24.37875 154.035625)rotate(-90)scale(0.24 -0.24)">
      <use xlink:href="#ArialMT-99"/>
      <use x="50" xlink:href="#ArialMT-101"/>
      <use x="105.615234" xlink:href="#ArialMT-108"/>
      <use x="127.832031" xlink:href="#ArialMT-108"/>
      <use x="150.048828" xlink:href="#ArialMT-115"/>
     </g>
    </g>
   </g>
   <g id="line2d_8">
    <path clip-path="url(#p9831dc501b)" d="M 104.873494 241.693636 
L 126.083582 241.585824 
L 128.231439 241.345716 
L 129.842331 240.944725 
L 131.184742 240.362158 
L 132.25867 239.660992 
L 133.332599 238.683284 
L 134.406527 237.358531 
L 135.480456 235.610874 
L 136.554384 233.36215 
L 137.628313 230.535609 
L 138.702241 227.060067 
L 139.77617 222.874226 
L 141.11858 216.572731 
L 142.460991 209.03646 
L 143.803401 200.264866 
L 145.414294 188.191486 
L 147.293669 172.243475 
L 149.710008 149.599385 
L 155.885097 90.462497 
L 157.764472 74.843421 
L 159.375364 63.064099 
L 160.986257 52.965505 
L 162.328668 45.900383 
L 163.671078 40.070339 
L 164.745007 36.27537 
L 165.818935 33.22076 
L 166.892864 30.866053 
L 167.69831 29.530634 
L 168.503756 28.539647 
L 169.309203 27.869636 
L 170.114649 27.496519 
L 170.920095 27.396046 
L 171.725542 27.544202 
L 172.530988 27.917565 
L 173.604917 28.726921 
L 174.678845 29.846541 
L 176.021256 31.612968 
L 177.632148 34.168113 
L 179.511523 37.608788 
L 181.927862 42.553324 
L 184.881166 49.131152 
L 188.908397 58.702327 
L 194.27804 72.0957 
L 204.48036 97.664637 
L 208.776074 107.736484 
L 212.534824 115.978432 
L 216.025091 123.104342 
L 219.515359 129.712829 
L 222.737144 135.362255 
L 225.95893 140.594266 
L 229.180715 145.426401 
L 232.402501 149.876988 
L 235.624286 153.964831 
L 238.846071 157.7094 
L 242.067857 161.130964 
L 245.289642 164.250468 
L 248.77991 167.313724 
L 252.270177 170.074231 
L 255.760445 172.55792 
L 259.519195 174.951247 
L 263.277944 177.080665 
L 267.305176 179.099326 
L 271.332408 180.875192 
L 275.628122 182.532211 
L 280.192318 184.05704 
L 285.024996 185.441349 
L 290.394638 186.741235 
L 296.032763 187.877805 
L 302.207851 188.899371 
L 309.188386 189.824884 
L 316.974368 190.629053 
L 325.834278 191.318906 
L 336.30508 191.905702 
L 348.92374 192.383085 
L 365.032667 192.757467 
L 373.087131 192.880125 
L 373.087131 192.880125 
" style="fill:none;stroke:#4c72b0;stroke-linecap:round;stroke-width:3;"/>
   </g>
   <g id="line2d_9">
    <path clip-path="url(#p9831dc501b)" d="M 104.873494 241.693636 
L 126.083582 241.585824 
L 128.231439 241.345716 
L 129.842331 240.944725 
L 131.184742 240.362158 
L 132.25867 239.660992 
L 133.332599 238.683284 
L 134.406527 237.358531 
L 135.480456 235.610874 
L 136.554384 233.362149 
L 137.628313 230.535608 
L 138.702241 227.060065 
L 139.77617 222.87422 
L 141.11858 216.572705 
L 142.460991 209.03637 
L 143.803401 200.26458 
L 145.414294 188.190468 
L 147.293669 172.239635 
L 149.710008 149.58235 
L 156.153579 87.78558 
L 158.032954 72.129707 
L 159.912329 58.38453 
L 161.523221 48.288811 
L 162.865632 41.103581 
L 164.208043 35.024622 
L 165.550453 30.014159 
L 166.624382 26.736448 
L 167.69831 24.068661 
L 168.772239 21.969712 
L 169.846167 20.395881 
L 170.651613 19.533094 
L 171.45706 18.921403 
L 172.262506 18.542079 
L 173.067952 18.376893 
L 173.873399 18.408314 
L 174.678845 18.61968 
L 175.752774 19.154511 
L 176.826702 19.947483 
L 178.169113 21.25588 
L 179.511523 22.869664 
L 181.122416 25.150937 
L 183.001791 28.217342 
L 185.149648 32.175969 
L 187.565987 37.125829 
L 190.250808 43.155379 
L 193.472593 51.001402 
L 197.231343 60.775544 
L 212.266342 100.598834 
L 216.025091 109.567782 
L 219.515359 117.336477 
L 223.005626 124.544596 
L 226.227412 130.698761 
L 229.449197 136.380467 
L 232.670983 141.602285 
L 235.892768 146.381196 
L 239.114554 150.737929 
L 242.336339 154.696292 
L 245.558124 158.28231 
L 248.77991 161.523215 
L 252.001695 164.446483 
L 255.223481 167.079028 
L 258.713748 169.632746 
L 262.204016 171.906298 
L 265.962765 174.074077 
L 269.721515 175.982594 
L 273.748747 177.773152 
L 278.044461 179.429027 
L 282.608657 180.939316 
L 287.441335 182.298636 
L 292.542495 183.506507 
L 298.18062 184.61454 
L 304.355708 185.602907 
L 311.336243 186.491957 
L 319.390707 187.282159 
L 328.519099 187.946916 
L 339.258384 188.501617 
L 352.414008 188.952046 
L 369.328381 189.298664 
L 373.087131 189.351936 
L 373.087131 189.351936 
" style="fill:none;stroke:#4c72b0;stroke-dasharray:12,4.5;stroke-dashoffset:0;stroke-width:3;"/>
   </g>
   <g id="line2d_10">
    <path clip-path="url(#p9831dc501b)" d="M 104.873494 241.693636 
L 126.352064 241.595548 
L 128.768403 241.340779 
L 130.379296 240.955595 
L 131.721706 240.40904 
L 132.795635 239.762663 
L 133.869563 238.874425 
L 134.943492 237.687148 
L 136.01742 236.140603 
L 137.091349 234.174158 
L 138.165277 231.729867 
L 139.239205 228.755791 
L 140.313134 225.209326 
L 141.655545 219.926766 
L 142.997955 213.678529 
L 144.608848 204.932968 
L 146.219741 194.937736 
L 148.367598 180.028663 
L 151.589383 155.721868 
L 155.07965 129.678857 
L 157.227507 115.243325 
L 159.106882 104.198626 
L 160.717775 96.119594 
L 162.060186 90.431849 
L 163.402596 85.706372 
L 164.476525 82.606728 
L 165.550453 80.089638 
L 166.624382 78.125413 
L 167.69831 76.677968 
L 168.503756 75.9072 
L 169.309203 75.386081 
L 170.114649 75.095878 
L 170.920095 75.017733 
L 171.725542 75.132965 
L 172.79947 75.556028 
L 173.873399 76.249393 
L 175.215809 77.438286 
L 176.55822 78.923083 
L 178.169113 81.0149 
L 180.31697 84.199799 
L 183.001791 88.623613 
L 186.492058 94.848208 
L 191.056254 103.485602 
L 199.647682 120.372703 
L 205.285807 131.176447 
L 209.581521 138.915573 
L 213.34027 145.229835 
L 216.830538 150.679263 
L 220.320805 155.727081 
L 223.811073 160.38332 
L 227.30134 164.663749 
L 230.791608 168.586095 
L 234.281875 172.168687 
L 237.772143 175.430455 
L 241.262411 178.391144 
L 244.752678 181.071295 
L 248.511428 183.667944 
L 252.270177 185.989654 
L 256.028927 188.061648 
L 260.056159 190.031559 
L 264.351873 191.877528 
L 268.916069 193.583097 
L 273.748747 195.137292 
L 278.849907 196.534505 
L 284.219549 197.774097 
L 290.126156 198.906494 
L 296.569727 199.912698 
L 303.818744 200.812928 
L 311.873208 201.585869 
L 321.270082 202.257133 
L 332.277849 202.813188 
L 345.701955 203.260869 
L 362.88481 203.601975 
L 373.087131 203.727572 
L 373.087131 203.727572 
" style="fill:none;stroke:#dd8452;stroke-linecap:round;stroke-width:3;"/>
   </g>
   <g id="line2d_11">
    <path clip-path="url(#p9831dc501b)" d="M 104.873494 241.693636 
L 126.352064 241.595548 
L 128.768403 241.340779 
L 130.379296 240.955595 
L 131.721706 240.40904 
L 132.795635 239.762663 
L 133.869563 238.874425 
L 134.943492 237.687148 
L 136.01742 236.140603 
L 137.091349 234.174159 
L 138.165277 231.729868 
L 139.239205 228.755794 
L 140.313134 225.209338 
L 141.655545 219.926808 
L 142.997955 213.678673 
L 144.608848 204.933517 
L 146.219741 194.939569 
L 148.367598 180.036324 
L 151.589383 155.768526 
L 155.07965 129.901973 
L 157.227507 115.734432 
L 158.8384 106.495596 
L 160.180811 99.868736 
L 161.523221 94.293201 
L 162.59715 90.611399 
L 163.671078 87.620512 
L 164.745007 85.304155 
L 165.550453 83.992546 
L 166.355899 83.028122 
L 167.161346 82.391981 
L 167.966792 82.063072 
L 168.772239 82.018788 
L 169.577685 82.235536 
L 170.383131 82.689272 
L 171.45706 83.621454 
L 172.530988 84.876817 
L 173.873399 86.820687 
L 175.484291 89.580326 
L 177.632148 93.759776 
L 180.853934 100.600136 
L 189.982326 120.223205 
L 194.27804 128.831199 
L 198.305272 136.40177 
L 202.064021 142.983665 
L 205.554289 148.645085 
L 208.776074 153.474339 
L 211.99786 157.927669 
L 215.219645 162.023117 
L 218.709913 166.08709 
L 222.20018 169.800849 
L 225.690448 173.201394 
L 229.449197 176.549853 
L 233.207947 179.604609 
L 237.235179 182.581022 
L 241.262411 185.276333 
L 245.289642 187.713481 
L 249.585356 190.052141 
L 253.88107 192.144447 
L 258.445266 194.12187 
L 263.277944 195.965793 
L 268.379104 197.661731 
L 273.748747 199.199641 
L 279.386871 200.574552 
L 285.293478 201.786292 
L 291.737049 202.880532 
L 298.717584 203.841632 
L 306.503565 204.689046 
L 315.363475 205.425607 
L 325.565796 206.045816 
L 337.647491 206.553141 
L 352.68249 206.954409 
L 372.550166 207.250223 
L 373.087131 207.255771 
L 373.087131 207.255771 
" style="fill:none;stroke:#dd8452;stroke-dasharray:12,4.5;stroke-dashoffset:0;stroke-width:3;"/>
   </g>
   <g id="patch_3">
    <path d="M 91.462812 252.86 
L 91.462812 7.2 
" style="fill:none;stroke:#262626;stroke-linecap:square;stroke-linejoin:miter;stroke-width:2.5;"/>
   </g>
   <g id="patch_4">
    <path d="M 91.462813 252.86 
L 386.497813 252.86 
" style="fill:none;stroke:#262626;stroke-linecap:square;stroke-linejoin:miter;stroke-width:2.5;"/>
   </g>
  </g>
 </g>
 <defs>
  <clipPath id="p9831dc501b">
   <rect height="245.66" width="295.035" x="91.462812" y="7.2"/>
  </clipPath>
 </defs>
</svg>
